<mxfile host="app.diagrams.net" modified="2022-04-28T14:13:19.468Z" agent="5.0 (Windows NT 10.0; Win64; x64) AppleWebKit/537.36 (KHTML, like Gecko) Chrome/100.0.4896.127 Safari/537.36 Edg/100.0.1185.50" etag="cO_-BWWkIzq9hUctY__A" version="17.4.6" type="github">
  <diagram id="C5RBs43oDa-KdzZeNtuy" name="Page-1">
    <mxGraphModel dx="1038" dy="579" grid="1" gridSize="10" guides="1" tooltips="1" connect="1" arrows="1" fold="1" page="1" pageScale="1" pageWidth="827" pageHeight="1169" math="0" shadow="0">
      <root>
        <mxCell id="WIyWlLk6GJQsqaUBKTNV-0" />
        <mxCell id="WIyWlLk6GJQsqaUBKTNV-1" parent="WIyWlLk6GJQsqaUBKTNV-0" />
        <mxCell id="QEFflFWpajvRfvWD8-T8-2" value="" style="edgeStyle=orthogonalEdgeStyle;rounded=0;orthogonalLoop=1;jettySize=auto;html=1;" edge="1" parent="WIyWlLk6GJQsqaUBKTNV-1" source="QEFflFWpajvRfvWD8-T8-0" target="QEFflFWpajvRfvWD8-T8-1">
          <mxGeometry relative="1" as="geometry" />
        </mxCell>
        <mxCell id="QEFflFWpajvRfvWD8-T8-0" value="start" style="rounded=1;whiteSpace=wrap;html=1;" vertex="1" parent="WIyWlLk6GJQsqaUBKTNV-1">
          <mxGeometry x="210" y="40" width="90" height="20" as="geometry" />
        </mxCell>
        <mxCell id="QEFflFWpajvRfvWD8-T8-4" value="" style="edgeStyle=orthogonalEdgeStyle;rounded=0;orthogonalLoop=1;jettySize=auto;html=1;" edge="1" parent="WIyWlLk6GJQsqaUBKTNV-1" source="QEFflFWpajvRfvWD8-T8-1" target="QEFflFWpajvRfvWD8-T8-3">
          <mxGeometry relative="1" as="geometry" />
        </mxCell>
        <mxCell id="QEFflFWpajvRfvWD8-T8-1" value="set the destination reach related boolean value" style="rounded=0;whiteSpace=wrap;html=1;" vertex="1" parent="WIyWlLk6GJQsqaUBKTNV-1">
          <mxGeometry x="195" y="90" width="120" height="60" as="geometry" />
        </mxCell>
        <mxCell id="QEFflFWpajvRfvWD8-T8-8" value="" style="edgeStyle=orthogonalEdgeStyle;rounded=0;orthogonalLoop=1;jettySize=auto;html=1;" edge="1" parent="WIyWlLk6GJQsqaUBKTNV-1" source="QEFflFWpajvRfvWD8-T8-3" target="QEFflFWpajvRfvWD8-T8-7">
          <mxGeometry relative="1" as="geometry" />
        </mxCell>
        <mxCell id="QEFflFWpajvRfvWD8-T8-3" value="set the road points path" style="whiteSpace=wrap;html=1;rounded=0;" vertex="1" parent="WIyWlLk6GJQsqaUBKTNV-1">
          <mxGeometry x="195" y="200" width="120" height="60" as="geometry" />
        </mxCell>
        <mxCell id="QEFflFWpajvRfvWD8-T8-10" value="" style="edgeStyle=orthogonalEdgeStyle;rounded=0;orthogonalLoop=1;jettySize=auto;html=1;" edge="1" parent="WIyWlLk6GJQsqaUBKTNV-1" source="QEFflFWpajvRfvWD8-T8-7" target="QEFflFWpajvRfvWD8-T8-9">
          <mxGeometry relative="1" as="geometry">
            <Array as="points">
              <mxPoint x="370" y="330" />
              <mxPoint x="370" y="70" />
            </Array>
          </mxGeometry>
        </mxCell>
        <mxCell id="QEFflFWpajvRfvWD8-T8-7" value="set the target of the vehicle" style="whiteSpace=wrap;html=1;rounded=0;" vertex="1" parent="WIyWlLk6GJQsqaUBKTNV-1">
          <mxGeometry x="195" y="300" width="120" height="60" as="geometry" />
        </mxCell>
        <mxCell id="QEFflFWpajvRfvWD8-T8-12" value="" style="edgeStyle=orthogonalEdgeStyle;rounded=0;orthogonalLoop=1;jettySize=auto;html=1;" edge="1" parent="WIyWlLk6GJQsqaUBKTNV-1" source="QEFflFWpajvRfvWD8-T8-9" target="QEFflFWpajvRfvWD8-T8-11">
          <mxGeometry relative="1" as="geometry" />
        </mxCell>
        <mxCell id="QEFflFWpajvRfvWD8-T8-9" value="set the bus stop related boolean and array&amp;nbsp;" style="whiteSpace=wrap;html=1;rounded=0;" vertex="1" parent="WIyWlLk6GJQsqaUBKTNV-1">
          <mxGeometry x="395" y="40" width="120" height="60" as="geometry" />
        </mxCell>
        <mxCell id="QEFflFWpajvRfvWD8-T8-14" value="" style="edgeStyle=orthogonalEdgeStyle;rounded=0;orthogonalLoop=1;jettySize=auto;html=1;" edge="1" parent="WIyWlLk6GJQsqaUBKTNV-1" source="QEFflFWpajvRfvWD8-T8-11" target="QEFflFWpajvRfvWD8-T8-13">
          <mxGeometry relative="1" as="geometry" />
        </mxCell>
        <mxCell id="QEFflFWpajvRfvWD8-T8-11" value="set the attack related the array" style="whiteSpace=wrap;html=1;rounded=0;" vertex="1" parent="WIyWlLk6GJQsqaUBKTNV-1">
          <mxGeometry x="395" y="150" width="120" height="60" as="geometry" />
        </mxCell>
        <mxCell id="QEFflFWpajvRfvWD8-T8-16" value="" style="edgeStyle=orthogonalEdgeStyle;rounded=0;orthogonalLoop=1;jettySize=auto;html=1;" edge="1" parent="WIyWlLk6GJQsqaUBKTNV-1" source="QEFflFWpajvRfvWD8-T8-13" target="QEFflFWpajvRfvWD8-T8-15">
          <mxGeometry relative="1" as="geometry" />
        </mxCell>
        <mxCell id="QEFflFWpajvRfvWD8-T8-13" value="return the property object" style="whiteSpace=wrap;html=1;rounded=0;" vertex="1" parent="WIyWlLk6GJQsqaUBKTNV-1">
          <mxGeometry x="395" y="240" width="120" height="60" as="geometry" />
        </mxCell>
        <mxCell id="QEFflFWpajvRfvWD8-T8-15" value="end" style="ellipse;whiteSpace=wrap;html=1;rounded=0;" vertex="1" parent="WIyWlLk6GJQsqaUBKTNV-1">
          <mxGeometry x="395" y="340" width="120" height="60" as="geometry" />
        </mxCell>
      </root>
    </mxGraphModel>
  </diagram>
</mxfile>
